<?xml version="1.0" encoding="UTF-8" standalone="no"?>
<svg xmlns:svg="http://www.w3.org/2000/svg" xmlns="http://www.w3.org/2000/svg" height="100" width="100" version="1.0">
  <path style="fill:#ffffff;" d="M 73.30405,39.630169 C 67.57503,33.162541 62.412215,28.985201 54.769647,39.876945 50.221981,46.358026 22.931145,83.485699 17.923409,89.39961 c -1.454643,1.71786 -2.306784,2.911734 -3.423648,3.603737 0.0017,-2.35074 18.851402,-32.201418 24.126547,-40.85205 6.336445,-10.391034 6.135263,-9.78422 5.37699,-9.781474 -1.073467,0.0037 -3.256833,1.587366 -6.576754,5.128091 -6.062385,6.465587 -24.017107,30.529286 -25.254941,30.158132 0.430025,-1.748022 14.475316,-23.286041 20.85248,-32.195668 5.497394,-7.680487 3.396011,-8.26589 0.245041,-7.516095 C 19.84359,41.146247 3.7866059,48.887245 3.2673166,48.607959 3.4614966,48.207129 57.34512,10.316335 64.543313,9.5919593 65.381275,9.5076343 67.149315,8.0131225 70.29994,6.7683358 73.720205,5.4170131 76.02209,4.3178687 76.591532,4.6653712 74.095551,8.1642856 72.781318,8.8684263 72.759106,9.9970699 72.722736,11.845196 72.064973,14.835018 71.344672,15.789643 85.268855,25.06559 90.701423,56.693521 94.67929,82.13266 95.628587,88.170729 96.508323,92.705132 96.732683,95.399475 95.55742,92.375448 84.424207,52.183997 73.30405,39.630169 Z" />
</svg>
